<svg id="svg" version="1.1" xmlns="http://www.w3.org/2000/svg" xmlns:xlink="http://www.w3.org/1999/xlink" width="400" height="400" viewBox="75, 90, 250,230"><g id="svgg"><path id="path0" d="M185.321 105.769 C 177.339 110.388,164.703 117.692,157.240 122.000 L 143.671 129.833 143.674 162.500 L 143.677 195.167 151.755 199.813 C 156.198 202.369,164.783 207.331,170.833 210.839 C 176.883 214.348,185.921 219.571,190.917 222.446 L 200.001 227.675 228.160 211.421 L 256.319 195.167 256.319 162.500 L 256.320 129.833 228.314 113.667 C 212.911 104.775,200.202 97.471,200.071 97.435 C 199.940 97.400,193.303 101.150,185.321 105.769 M225.667 118.257 L 250.833 132.833 250.902 162.500 L 250.971 192.167 225.614 206.801 C 203.698 219.448,200.149 221.394,199.467 221.134 C 199.033 220.969,187.506 214.383,173.852 206.500 L 149.026 192.167 149.026 162.500 L 149.026 132.833 174.263 118.262 C 188.143 110.247,199.725 103.688,200.000 103.686 C 200.275 103.683,211.825 110.241,225.667 118.257 M194.333 137.626 L 189.167 140.524 189.066 143.012 L 188.965 145.500 183.778 148.333 C 176.236 152.452,177.000 151.384,177.000 157.816 L 177.000 163.251 174.667 164.477 L 172.333 165.703 172.333 171.800 C 172.333 178.891,171.904 178.046,176.833 180.666 C 178.667 181.641,180.726 182.790,181.410 183.219 C 182.933 184.176,183.314 184.186,184.798 183.310 L 185.968 182.620 192.243 186.117 C 195.695 188.040,198.893 189.784,199.349 189.992 C 200.101 190.334,200.842 190.002,207.122 186.505 L 214.065 182.639 215.218 183.320 C 216.784 184.244,216.535 184.315,221.721 181.470 C 228.242 177.893,227.608 178.917,227.726 171.773 L 227.825 165.713 225.413 164.472 L 223.000 163.231 223.000 157.806 C 223.000 151.380,223.759 152.437,216.197 148.333 L 210.975 145.500 211.025 143.333 C 211.052 142.142,211.057 140.986,211.037 140.766 C 211.017 140.545,210.362 140.081,209.583 139.733 C 208.804 139.386,206.387 138.104,204.212 136.885 C 199.451 134.215,200.562 134.131,194.333 137.626 M202.459 139.000 C 203.714 139.733,204.836 140.337,204.954 140.341 C 205.071 140.345,205.514 140.615,205.938 140.942 L 206.709 141.535 203.371 143.281 L 200.033 145.026 198.100 144.046 C 197.037 143.507,195.519 142.695,194.727 142.243 L 193.287 141.420 196.560 139.565 C 200.499 137.331,199.729 137.405,202.459 139.000 M196.583 146.324 L 198.667 147.401 198.667 151.228 L 198.667 155.054 195.250 153.219 L 191.833 151.383 191.739 147.487 L 191.645 143.591 193.072 144.419 C 193.858 144.875,195.438 145.732,196.583 146.324 M208.095 151.348 C 207.951 151.478,206.371 152.366,204.583 153.321 L 201.333 155.058 201.333 151.276 L 201.333 147.493 204.750 145.615 L 208.167 143.736 208.261 147.423 C 208.314 149.451,208.239 151.217,208.095 151.348 M189.598 153.084 C 190.602 153.956,199.417 158.667,200.046 158.667 C 200.712 158.667,210.065 153.558,210.618 152.892 C 210.807 152.664,211.008 151.620,211.065 150.573 L 211.167 148.669 215.750 151.185 L 220.333 153.702 220.333 157.716 L 220.333 161.730 218.857 160.865 C 216.831 159.678,216.946 159.648,211.156 162.866 L 206.000 165.731 206.000 171.962 L 206.000 178.193 208.326 179.449 C 209.605 180.140,210.724 180.823,210.813 180.967 C 210.902 181.111,208.511 182.603,205.501 184.283 L 200.027 187.338 194.495 184.261 C 188.287 180.808,188.455 181.153,192.083 179.302 L 194.000 178.324 194.004 173.245 C 194.006 170.452,194.100 167.608,194.213 166.925 C 194.395 165.819,194.327 165.648,193.592 165.368 C 193.138 165.196,190.733 163.917,188.248 162.527 C 183.125 159.662,183.287 159.700,181.209 160.862 L 179.667 161.724 179.667 157.726 L 179.667 153.729 184.250 151.209 L 188.833 148.690 188.932 150.640 C 188.999 151.969,189.211 152.748,189.598 153.084 M186.542 164.689 C 190.342 166.744,190.350 166.467,186.434 168.554 L 183.206 170.275 179.943 168.554 C 176.006 166.478,176.026 166.862,179.751 164.763 C 183.492 162.654,182.791 162.661,186.542 164.689 M220.210 164.725 C 223.992 166.814,224.005 166.472,220.057 168.554 L 216.794 170.275 213.566 168.554 C 209.666 166.475,209.679 166.819,213.417 164.735 C 217.155 162.651,216.457 162.652,220.210 164.725 M181.927 176.504 L 182.022 180.392 179.427 178.963 C 174.408 176.198,175.005 177.039,175.002 172.723 L 175.000 168.946 178.417 170.781 L 181.833 172.617 181.927 176.504 M191.333 172.781 L 191.333 176.562 188.230 178.281 C 186.523 179.226,185.018 180.000,184.886 180.000 C 184.753 180.000,184.687 178.316,184.739 176.258 L 184.833 172.516 188.000 170.768 C 189.742 169.807,191.204 169.016,191.250 169.010 C 191.296 169.005,191.333 170.701,191.333 172.781 M215.328 176.250 C 215.331 178.313,215.239 180.000,215.123 180.000 C 215.008 180.000,213.508 179.224,211.790 178.275 L 208.667 176.550 208.667 172.759 L 208.667 168.968 211.995 170.734 L 215.323 172.500 215.328 176.250 M224.428 176.813 C 224.101 177.007,222.521 177.885,220.917 178.763 L 218.000 180.361 218.000 176.541 L 218.000 172.721 221.417 170.884 L 224.833 169.047 224.928 172.754 C 225.012 176.018,224.952 176.503,224.428 176.813 M262.667 269.500 L 262.667 286.333 266.000 286.333 L 269.333 286.333 269.333 269.500 L 269.333 252.667 266.000 252.667 L 262.667 252.667 262.667 269.500 M79.333 270.313 L 79.333 286.333 82.833 286.333 L 86.333 286.333 86.333 280.702 L 86.333 275.071 91.417 274.944 C 97.159 274.800,99.098 274.213,101.383 271.928 C 105.205 268.106,104.838 260.304,100.682 257.012 C 97.684 254.638,97.056 254.511,87.750 254.396 L 79.333 254.292 79.333 270.313 M110.333 270.333 L 110.333 286.333 113.833 286.333 L 117.333 286.333 117.333 280.500 L 117.333 274.667 119.757 274.667 L 122.180 274.667 125.174 280.494 L 128.167 286.322 131.917 286.328 C 133.979 286.331,135.667 286.289,135.667 286.234 C 135.667 286.180,134.114 283.218,132.216 279.651 L 128.766 273.167 130.351 272.096 C 135.252 268.786,135.819 260.871,131.431 257.009 C 128.811 254.703,126.951 254.333,117.965 254.333 L 110.333 254.333 110.333 270.333 M152.333 257.000 L 152.333 259.667 157.167 259.667 L 162.000 259.667 162.000 273.000 L 162.000 286.333 165.500 286.333 L 169.000 286.333 169.000 273.000 L 169.000 259.667 173.833 259.667 L 178.667 259.667 178.667 257.000 L 178.667 254.333 165.500 254.333 L 152.333 254.333 152.333 257.000 M94.926 260.561 C 96.531 261.760,97.090 262.829,97.118 264.756 C 97.169 268.306,95.655 269.348,90.092 269.594 L 86.333 269.760 86.333 264.667 L 86.333 259.574 90.197 259.744 C 93.322 259.882,94.226 260.038,94.926 260.561 M125.269 260.467 C 126.617 261.164,127.333 262.563,127.333 264.500 C 127.333 267.930,125.865 268.994,120.775 269.253 L 117.333 269.429 117.333 264.500 L 117.333 259.571 120.775 259.747 C 123.002 259.860,124.587 260.114,125.269 260.467 M185.290 262.635 C 175.987 266.274,175.910 282.491,185.179 285.981 C 193.744 289.206,200.833 283.927,200.833 274.326 C 200.833 264.880,193.552 259.403,185.290 262.635 M211.500 262.794 C 203.740 266.463,203.724 282.263,211.476 285.873 C 214.305 287.190,218.497 286.828,220.404 285.102 C 220.966 284.594,221.000 284.634,221.000 285.804 C 221.000 290.271,215.914 292.057,211.614 289.100 C 210.694 288.466,209.907 287.997,209.866 288.057 C 209.826 288.118,209.224 288.957,208.530 289.923 C 207.112 291.895,207.135 292.227,208.774 293.478 C 213.128 296.799,221.060 296.357,224.920 292.578 C 227.586 289.968,227.667 289.457,227.667 275.154 L 227.667 262.667 224.667 262.667 C 221.919 262.667,221.667 262.721,221.667 263.314 C 221.667 264.196,221.167 264.436,220.643 263.805 C 219.050 261.885,214.490 261.381,211.500 262.794 M239.500 262.794 C 231.740 266.463,231.724 282.263,239.476 285.873 C 242.305 287.190,246.497 286.828,248.404 285.102 C 248.966 284.594,249.000 284.634,249.000 285.804 C 249.000 290.271,243.914 292.057,239.614 289.100 C 238.694 288.466,237.907 287.997,237.866 288.057 C 237.826 288.118,237.224 288.957,236.530 289.923 C 235.112 291.895,235.135 292.227,236.774 293.478 C 241.128 296.799,249.060 296.357,252.920 292.578 C 255.586 289.968,255.667 289.457,255.667 275.154 L 255.667 262.667 252.667 262.667 C 249.919 262.667,249.667 262.721,249.667 263.314 C 249.667 264.196,249.167 264.436,248.643 263.805 C 247.050 261.885,242.490 261.381,239.500 262.794 M282.961 262.460 C 273.386 265.882,272.645 281.144,281.833 285.677 C 285.858 287.662,293.651 286.410,296.021 283.397 C 296.869 282.320,296.899 282.421,295.123 280.390 L 293.579 278.626 292.706 279.462 C 289.793 282.252,284.825 281.843,283.039 278.665 C 281.682 276.251,281.443 276.333,289.833 276.333 L 297.333 276.333 297.333 274.183 C 297.333 265.144,290.667 259.706,282.961 262.460 M307.351 262.558 C 305.348 263.289,302.781 265.885,302.482 267.481 C 301.545 272.475,303.763 274.914,311.003 276.852 C 314.497 277.787,315.333 278.336,315.333 279.694 C 315.333 282.768,309.021 282.738,307.948 279.660 L 307.601 278.667 304.441 278.667 L 301.280 278.667 301.514 279.750 C 303.475 288.836,320.639 289.259,321.873 280.252 C 322.460 275.972,320.035 273.626,313.181 271.845 C 309.525 270.895,308.667 270.349,308.667 268.973 C 308.667 266.148,313.762 265.837,314.977 268.587 L 315.454 269.667 318.753 269.667 L 322.053 269.667 321.817 268.583 C 321.242 265.938,320.021 264.368,317.540 263.084 C 315.351 261.951,309.799 261.664,307.351 262.558 M192.384 268.201 C 194.178 269.798,194.952 274.692,193.942 278.061 C 192.558 282.682,186.600 282.362,185.313 277.596 C 183.509 270.916,188.292 264.561,192.384 268.201 M219.701 268.097 L 220.833 268.860 220.833 274.333 L 220.833 279.807 219.701 280.570 C 215.859 283.159,212.497 280.246,212.503 274.333 C 212.509 268.498,215.915 265.546,219.701 268.097 M247.701 268.097 L 248.833 268.860 248.833 274.333 L 248.833 279.807 247.701 280.570 C 243.859 283.159,240.497 280.246,240.503 274.333 C 240.509 268.498,243.915 265.546,247.701 268.097 M289.730 268.629 C 290.377 269.353,290.667 270.037,290.667 270.839 L 290.667 272.000 286.500 272.000 C 281.820 272.000,281.812 271.995,283.002 269.663 C 284.327 267.065,287.849 266.523,289.730 268.629 " stroke="none" fill="#5cacbc" fill-rule="evenodd"></path><path id="path1" d="" stroke="none" fill="#60acbc" fill-rule="evenodd"></path><path id="path2" d="" stroke="none" fill="#60acbc" fill-rule="evenodd"></path><path id="path3" d="" stroke="none" fill="#60acbc" fill-rule="evenodd"></path><path id="path4" d="" stroke="none" fill="#60acbc" fill-rule="evenodd"></path></g></svg>