<svg width="123" height="132" viewBox="0 0 123 132" fill="none" xmlns="http://www.w3.org/2000/svg">
<g clip-path="url(#clip0_1_2)">
<path fill-rule="evenodd" clip-rule="evenodd" d="M45.988 8.33424C38.006 12.9532 25.37 20.2572 17.907 24.5652L4.33801 32.3982L4.341 65.0652L4.344 97.7323L12.422 102.378C16.865 104.934 25.45 109.896 31.5 113.404C37.55 116.913 46.588 122.136 51.584 125.011L60.668 130.24L88.827 113.986L116.986 97.7323V65.0652L116.987 32.3982L88.981 16.2322C73.578 7.34024 60.869 0.036243 60.738 0.000243023C60.607 -0.034757 53.97 3.71524 45.988 8.33424ZM86.334 20.8222L111.5 35.3982L111.569 65.0652L111.638 94.7323L86.281 109.366C64.365 122.013 60.816 123.959 60.134 123.699C59.7 123.534 48.173 116.948 34.519 109.065L9.693 94.7323V65.0652V35.3982L34.93 20.8272C48.81 12.8122 60.392 6.25324 60.667 6.25124C60.942 6.24824 72.492 12.8062 86.334 20.8222ZM55 40.1913L49.834 43.0892L49.733 45.5772L49.632 48.0652L44.445 50.8982C36.903 55.0172 37.667 53.9492 37.667 60.3812V65.8163L35.334 67.0423L33 68.2682V74.3652C33 81.4562 32.571 80.6112 37.5 83.2312C39.334 84.2062 41.393 85.3552 42.077 85.7842C43.6 86.7412 43.981 86.7512 45.465 85.8752L46.635 85.1852L52.91 88.6823C56.362 90.6053 59.56 92.3493 60.016 92.5573C60.768 92.8993 61.509 92.5673 67.789 89.0703L74.732 85.2043L75.885 85.8853C77.451 86.8093 77.202 86.8802 82.388 84.0352C88.909 80.4582 88.275 81.4822 88.393 74.3382L88.492 68.2782L86.08 67.0372L83.667 65.7962V60.3712C83.667 53.9452 84.426 55.0022 76.864 50.8982L71.642 48.0652L71.692 45.8982C71.719 44.7072 71.724 43.5513 71.704 43.3313C71.684 43.1103 71.029 42.6462 70.25 42.2982C69.471 41.9512 67.054 40.6692 64.879 39.4502C60.118 36.7802 61.229 36.6963 55 40.1913ZM63.126 41.5652C64.381 42.2982 65.503 42.9022 65.621 42.9062C65.738 42.9103 66.181 43.1802 66.605 43.5072L67.376 44.1003L64.038 45.8463L60.7 47.5912L58.767 46.6113C57.704 46.0723 56.186 45.2602 55.394 44.8082L53.954 43.9852L57.227 42.1302C61.166 39.8962 60.396 39.9702 63.126 41.5652ZM57.25 48.8893L59.334 49.9662V53.7932V57.6192L55.917 55.7842L52.5 53.9482L52.406 50.0522L52.312 46.1562L53.739 46.9843C54.525 47.4403 56.105 48.2973 57.25 48.8893ZM68.762 53.9133C68.618 54.0433 67.038 54.9312 65.25 55.8862L62 57.6232V53.8412V50.0582L65.417 48.1803L68.834 46.3012L68.928 49.9883C68.981 52.0163 68.906 53.7823 68.762 53.9133ZM50.265 55.6492C51.269 56.5212 60.084 61.2323 60.713 61.2323C61.379 61.2323 70.732 56.1232 71.285 55.4572C71.474 55.2292 71.675 54.1852 71.732 53.1382L71.834 51.2343L76.417 53.7502L81 56.2672V60.2812V64.2952L79.524 63.4303C77.498 62.2433 77.613 62.2132 71.823 65.4312L66.667 68.2962V74.5273V80.7582L68.993 82.0143C70.272 82.7053 71.391 83.3882 71.48 83.5322C71.569 83.6762 69.178 85.1683 66.168 86.8483L60.694 89.9032L55.162 86.8262C48.954 83.3732 49.122 83.7182 52.75 81.8672L54.667 80.8893L54.671 75.8102C54.673 73.0172 54.767 70.1732 54.88 69.4902C55.062 68.3842 54.994 68.2132 54.259 67.9332C53.805 67.7612 51.4 66.4822 48.915 65.0922C43.792 62.2272 43.954 62.2652 41.876 63.4272L40.334 64.2892V60.2912V56.2943L44.917 53.7742L49.5 51.2552L49.599 53.2052C49.666 54.5342 49.878 55.3132 50.265 55.6492ZM47.209 67.2542C51.009 69.3092 51.017 69.0322 47.101 71.1192L43.873 72.8402L40.61 71.1192C36.673 69.0432 36.693 69.4272 40.418 67.3282C44.159 65.2192 43.458 65.2262 47.209 67.2542ZM80.877 67.2903C84.659 69.3793 84.672 69.0372 80.724 71.1192L77.461 72.8402L74.233 71.1192C70.333 69.0402 70.346 69.3842 74.084 67.3002C77.822 65.2162 77.124 65.2173 80.877 67.2903ZM42.594 79.0692L42.689 82.9572L40.094 81.5282C35.075 78.7632 35.672 79.6043 35.669 75.2883L35.667 71.5112L39.084 73.3463L42.5 75.1823L42.594 79.0692ZM52 75.3463V79.1272L48.897 80.8463C47.19 81.7913 45.685 82.5652 45.553 82.5652C45.42 82.5652 45.354 80.8812 45.406 78.8232L45.5 75.0813L48.667 73.3333C50.409 72.3723 51.871 71.5812 51.917 71.5752C51.963 71.5702 52 73.2663 52 75.3463ZM75.995 78.8152C75.998 80.8782 75.906 82.5652 75.79 82.5652C75.675 82.5652 74.175 81.7892 72.457 80.8402L69.334 79.1152V75.3242V71.5332L72.662 73.2992L75.99 75.0652L75.995 78.8152ZM85.095 79.3783C84.768 79.5723 83.188 80.4502 81.584 81.3282L78.667 82.9262V79.1062V75.2862L82.084 73.4492L85.5 71.6122L85.595 75.3192C85.679 78.5832 85.619 79.0683 85.095 79.3783ZM123.334 172.065V188.898H126.667H130V172.065V155.232H126.667H123.334V172.065ZM-60 172.878V188.898H-56.5H-53V183.267V177.636L-47.916 177.509C-42.174 177.365 -40.235 176.778 -37.95 174.493C-34.128 170.671 -34.495 162.869 -38.651 159.577C-41.649 157.203 -42.277 157.076 -51.583 156.961L-60 156.857V172.878ZM-29 172.898V188.898H-25.5H-22V183.065V177.232H-19.576H-17.153L-14.159 183.059L-11.166 188.887L-7.41599 188.893C-5.35399 188.896 -3.66599 188.854 -3.66599 188.799C-3.66599 188.745 -5.219 185.783 -7.117 182.216L-10.567 175.732L-8.982 174.661C-4.081 171.351 -3.514 163.436 -7.902 159.574C-10.522 157.268 -12.382 156.898 -21.368 156.898H-29V172.898ZM13 159.565V162.232H17.834H22.667V175.565V188.898H26.167H29.667V175.565V162.232H34.5H39.334V159.565V156.898H26.167H13V159.565ZM-44.407 163.126C-42.802 164.325 -42.243 165.394 -42.215 167.321C-42.164 170.871 -43.678 171.913 -49.241 172.159L-53 172.325V167.232V162.139L-49.136 162.309C-46.011 162.447 -45.107 162.603 -44.407 163.126ZM-14.064 163.032C-12.716 163.729 -12 165.128 -12 167.065C-12 170.495 -13.468 171.559 -18.558 171.818L-22 171.994V167.065V162.136L-18.558 162.312C-16.331 162.425 -14.746 162.679 -14.064 163.032ZM45.957 165.2C36.654 168.839 36.577 185.056 45.846 188.546C54.411 191.771 61.5 186.492 61.5 176.891C61.5 167.445 54.219 161.968 45.957 165.2ZM72.167 165.359C64.407 169.028 64.391 184.828 72.143 188.438C74.972 189.755 79.164 189.393 81.071 187.667C81.633 187.159 81.667 187.199 81.667 188.369C81.667 192.836 76.581 194.622 72.281 191.665C71.361 191.031 70.574 190.562 70.533 190.622C70.493 190.683 69.891 191.522 69.197 192.488C67.779 194.46 67.802 194.792 69.441 196.043C73.795 199.364 81.727 198.922 85.587 195.143C88.253 192.533 88.334 192.022 88.334 177.719V165.232H85.334C82.586 165.232 82.334 165.286 82.334 165.879C82.334 166.761 81.834 167.001 81.31 166.37C79.717 164.45 75.157 163.946 72.167 165.359ZM100.167 165.359C92.407 169.028 92.391 184.828 100.143 188.438C102.972 189.755 107.164 189.393 109.071 187.667C109.633 187.159 109.667 187.199 109.667 188.369C109.667 192.836 104.581 194.622 100.281 191.665C99.361 191.031 98.574 190.562 98.533 190.622C98.493 190.683 97.891 191.522 97.197 192.488C95.779 194.46 95.802 194.792 97.441 196.043C101.795 199.364 109.727 198.922 113.587 195.143C116.253 192.533 116.334 192.022 116.334 177.719V165.232H113.334C110.586 165.232 110.334 165.286 110.334 165.879C110.334 166.761 109.834 167.001 109.31 166.37C107.717 164.45 103.157 163.946 100.167 165.359ZM143.628 165.025C134.053 168.447 133.312 183.709 142.5 188.242C146.525 190.227 154.318 188.975 156.688 185.962C157.536 184.885 157.566 184.986 155.79 182.955L154.246 181.191L153.373 182.027C150.46 184.817 145.492 184.408 143.706 181.23C142.349 178.816 142.11 178.898 150.5 178.898H158V176.748C158 167.709 151.334 162.271 143.628 165.025ZM168.018 165.123C166.015 165.854 163.448 168.45 163.149 170.046C162.212 175.04 164.43 177.479 171.67 179.417C175.164 180.352 176 180.901 176 182.259C176 185.333 169.688 185.303 168.615 182.225L168.268 181.232H165.108H161.947L162.181 182.315C164.142 191.401 181.306 191.824 182.54 182.817C183.127 178.537 180.702 176.191 173.848 174.41C170.192 173.46 169.334 172.914 169.334 171.538C169.334 168.713 174.429 168.402 175.644 171.152L176.121 172.232H179.42H182.72L182.484 171.148C181.909 168.503 180.688 166.933 178.207 165.649C176.018 164.516 170.466 164.229 168.018 165.123ZM53.051 170.766C54.845 172.363 55.619 177.257 54.609 180.626C53.225 185.247 47.267 184.927 45.98 180.161C44.176 173.481 48.959 167.126 53.051 170.766ZM80.368 170.662L81.5 171.425V176.898V182.372L80.368 183.135C76.526 185.724 73.164 182.811 73.17 176.898C73.176 171.063 76.582 168.111 80.368 170.662ZM108.368 170.662L109.5 171.425V176.898V182.372L108.368 183.135C104.526 185.724 101.164 182.811 101.17 176.898C101.176 171.063 104.582 168.111 108.368 170.662ZM150.397 171.194C151.044 171.918 151.334 172.602 151.334 173.404V174.565H147.167C142.487 174.565 142.479 174.56 143.669 172.228C144.994 169.63 148.516 169.088 150.397 171.194Z" fill="#5CACBC"/>
</g>
<defs>
<clipPath id="clip0_1_2">
<rect width="123" height="132" fill="white"/>
</clipPath>
</defs>
</svg>
